<?xml version="1.0" encoding="utf-8"?>
<!-- Generator: Adobe Illustrator 15.0.0, SVG Export Plug-In . SVG Version: 6.00 Build 0)  -->
<!DOCTYPE svg PUBLIC "-//W3C//DTD SVG 1.1//EN" "http://www.w3.org/Graphics/SVG/1.1/DTD/svg11.dtd">
<svg version="1.1" id="Layer_1" xmlns="http://www.w3.org/2000/svg" xmlns:xlink="http://www.w3.org/1999/xlink" x="0px" y="0px"
	 width="130px" height="130px" viewBox="50 50 180 180" enable-background="new 0 0 288 288" xml:space="preserve">
<path fill="#FB4F21" d="M143.944,56.352c-46.369,0-84.092,37.723-84.092,84.092c0,46.369,37.723,84.093,84.092,84.093
	c46.369,0,84.093-37.725,84.093-84.093C228.037,94.075,190.313,56.352,143.944,56.352 M143.944,218.068
	c-42.803,0-77.624-34.822-77.624-77.625c0-42.803,34.821-77.624,77.624-77.624s77.625,34.821,77.625,77.624
	C221.569,183.246,186.747,218.068,143.944,218.068"/>
<path fill="#FB4F21" d="M182.764,170.307c0.574-0.859,1.018-1.779,1.354-2.729c0.734-2.069,0.915-4.303,0.473-6.512
	c-0.644-3.223-2.506-6.002-5.241-7.824c-2.968-1.98-6.803-2.354-10.28-1.618c-2.621,0.556-5.108,2.075-6.911,3.795
	c-0.728,0.694-1.358,1.499-1.873,2.312c-0.537,0.848-0.285,1.971,0.562,2.508c0.85,0.537,1.972,0.285,2.508-0.562
	c0.198-0.312,0.508-0.593,0.761-0.888c1.351-1.579,3.527-2.913,5.755-3.386c1.74-0.369,4.621-0.616,7.271,1.151
	c1.852,1.233,3.11,3.113,3.546,5.294c0.32,1.6,0.159,3.217-0.431,4.698c-0.214,0.538-0.477,1.06-0.806,1.554
	c-0.928,1.391-2.342,2.338-3.982,2.666c-1.148,0.23-2.312,0.117-3.389-0.281c-0.136-0.049-0.27-0.104-0.402-0.164
	c-0.312-0.14-0.621-0.291-0.911-0.485c-2.114-1.41-2.688-4.279-1.277-6.394c0.164-0.248,0.369-0.461,0.592-0.658
	c0.493-0.436,1.098-0.744,1.741-0.848c0.553-0.086,1.349-0.049,2.108,0.504c0.689,0.502,0.889,1.213,0.692,1.688
	c-0.016,0.037-0.039,0.07-0.058,0.105c-0.21,0.431-0.595,0.806-1.032,0.77c-1.156-0.146-2.208,0.693-2.343,1.854
	c-0.136,1.157,0.906,2.235,1.998,2.362c2.189,0.267,4.264-0.888,5.17-3.095c0.017-0.039,0.022-0.079,0.037-0.118
	c0.925-2.394,0.148-5.013-2.014-6.702c-1.46-1.141-3.308-1.605-5.192-1.298c-1.828,0.294-3.46,1.299-4.611,2.743
	c-0.131,0.164-0.284,0.309-0.402,0.484c-1.131,1.698-1.575,3.698-1.351,5.703c0.026,0.25,0.024,0.5,0.074,0.748
	c0.45,2.25,1.75,4.19,3.659,5.465c1.703,1.135,3.66,1.723,5.661,1.723c0.674,0,1.354-0.067,2.029-0.202
	c1.354-0.271,2.612-0.802,3.723-1.552C181.062,172.381,182.012,171.436,182.764,170.307"/>
<path fill="#FB4F21" d="M201.841,183.897L201.841,183.897c2.185-2.903,4.154-5.976,5.89-9.194c0.005-0.008,0.01-0.019,0.015-0.028
	c5.494-10.2,8.62-21.856,8.62-34.231c0-39.932-32.487-72.42-72.421-72.42c-39.932,0-72.419,32.488-72.419,72.42
	c0,36.464,27.093,66.705,62.203,71.686c0.153,0.022,0.308,0.038,0.462,0.059c1.339,0.181,2.689,0.323,4.049,0.431
	c0.357,0.027,0.713,0.058,1.071,0.08c1.534,0.099,3.076,0.164,4.634,0.164c1.335,0,2.659-0.041,3.975-0.113h0.001
	c8.016-0.436,15.679-2.193,22.797-5.037c0.022-0.008,0.044-0.018,0.065-0.026c6.315-2.528,12.191-5.92,17.487-10.032
	c0.014-0.011,0.027-0.021,0.042-0.033c3.379-2.627,6.526-5.535,9.392-8.709c0.007-0.008,0.013-0.017,0.02-0.023
	c1.417-1.57,2.766-3.204,4.041-4.895C201.789,183.962,201.816,183.931,201.841,183.897 M193.182,182.757
	c-2.668-0.478-5.296-0.921-7.914-1.384c0.724-0.897,1.189-1.864,1.516-2.609c0.09-0.204,0.213-0.484,0.307-0.672
	c0.187-0.094,0.469-0.217,0.673-0.307c0.909-0.399,2.168-0.955,3.201-2.014c2.953,0.604,5.906,1.163,8.855,1.651
	c0.616,0.103,1.229,0.185,1.845,0.282c-1.316,2.031-2.731,3.992-4.247,5.867C196.013,183.287,194.605,183.01,193.182,182.757
	 M159.585,174.312c-1.171-0.914-3.19-1.2-3.92-2.461c-0.775-1.34,0.18-3.437-0.229-4.967c-0.396-1.479-2.283-2.813-2.283-4.418
	s1.887-2.938,2.283-4.418c0.408-1.531-0.547-3.628,0.229-4.968c0.111-0.191,0.257-0.355,0.419-0.508
	c0.996-0.927,2.824-1.224,3.772-2.172c1.103-1.103,1.318-3.404,2.679-4.189c0.604-0.35,1.366-0.344,2.157-0.273
	c0.962,0.086,1.97,0.268,2.81,0.043c1.48-0.395,2.814-2.282,4.418-2.282c1.604,0,2.939,1.887,4.418,2.282
	c1.531,0.41,3.628-0.545,4.968,0.23c1.36,0.787,1.576,3.088,2.68,4.191c1.103,1.103,3.403,1.319,4.189,2.678
	c0.776,1.341-0.179,3.438,0.23,4.968c0.395,1.479,2.282,2.813,2.282,4.418s-1.888,2.938-2.282,4.418
	c-0.136,0.507-0.118,1.077-0.067,1.659c0.104,1.178,0.356,2.412-0.163,3.309c-0.723,1.249-2.713,1.541-3.889,2.436
	c-0.104,0.078-0.212,0.154-0.302,0.244c-1.104,1.103-1.319,3.403-2.68,4.189c-1.34,0.775-3.436-0.18-4.967,0.23
	c-0.718,0.209-1.53,0.24-2.444,0.021C168.991,177.752,164.151,176.267,159.585,174.312 M122.114,167.625
	c0.759,2.387,1.986,4.56,3.418,6.49c2.918,3.836,6.601,6.709,10.385,9.094c3.798,2.392,7.775,4.281,11.774,5.921
	c7.973,3.255,16.188,5.544,23.891,7.474c2.344,0.619,6.507,1.588,8.882,2.088c0,0-0.375,0.188-0.602,0.334
	c-3.292,2.026-6.772,3.771-10.399,5.228c-6.876-2.195-16.663-5.224-27.78-9.091c-7.382-2.568-14.391-5.68-21.03-10.088
	c-3.283-2.222-6.324-4.81-8.622-7.871c-2.319-3.043-3.788-6.578-4.071-10.291c-0.288-3.715,0.592-7.547,2.203-11.129
	c1.583-3.604,3.86-6.975,6.424-10.084c5.167-6.222,11.495-11.444,17.936-15.898c3.316-2.212,6.709-4.629,9.549-7.551
	c1.423-1.471,2.746-3.073,3.774-4.918c1.018-1.839,1.745-3.956,1.771-6.156c0.052-2.19-0.604-4.317-1.582-6.062
	c-0.982-1.761-2.236-3.228-3.562-4.496c-1.329-1.271-2.729-2.36-4.143-3.356c-1.44-1.005-2.872-1.841-4.156-2.669
	c-2.546-1.692-4.835-3.64-6.043-5.904c-1.291-2.248-0.853-4.719,0.529-6.647c1.362-1.943,3.265-3.421,5.084-4.619
	c1.838-1.199,3.644-2.153,5.302-2.963c2.419-1.166,4.291-1.964,5.979-2.612c0.192,0.009,0.61-0.038,0.803-0.027
	c-1.381,0.616-2.954,1.366-4.71,2.315c-1.667,0.914-3.476,2.038-5.263,3.616c-0.881,0.799-1.778,1.706-2.493,2.888
	c-0.719,1.157-1.25,2.642-1.188,4.219c0.041,1.574,0.61,3.093,1.398,4.401c0.792,1.319,1.792,2.481,2.875,3.572
	c2.187,2.161,4.729,4.036,7.447,5.837c0.657,0.443,1.322,0.891,1.994,1.343c0.634,0.453,1.272,0.905,1.901,1.402
	c1.257,0.978,2.474,2.036,3.552,3.197c2.193,2.295,3.716,5.099,3.362,8.04c-0.302,2.964-2.234,5.984-4.596,8.708
	c-2.392,2.742-5.258,5.295-8.303,7.745c-6.285,4.974-12.819,10.605-17.774,18.07c-2.433,3.73-4.458,8.113-4.814,13.07
	C121.049,162.701,121.334,165.252,122.114,167.625 M114.796,199.547c-6.671-4.039-13.686-9.195-18.428-15.483
	c-2.347-3.137-4.161-6.64-5.132-10.368c-0.981-3.725-1.094-7.664-0.341-11.513c1.478-7.755,6.168-14.848,11.784-20.712
	c0.434-0.449,0.914-0.846,1.36-1.281c1.205-1.175,2.43-2.323,3.712-3.403c0.002-0.002,0.004-0.003,0.005-0.004
	c1.032-0.87,2.093-1.698,3.167-2.508c1.044-0.787,2.11-1.529,3.187-2.26c1.992-1.351,4.023-2.61,6.095-3.772
	c0.642-0.361,1.272-0.758,1.919-1.1c0.013-0.007,0.025-0.015,0.038-0.022c1.28-0.686,2.54-1.398,3.787-2.13
	c2.296-1.347,4.529-2.785,6.638-4.424c1.627-1.271,3.177-2.693,4.529-4.386c0.663-0.866,1.275-1.801,1.756-2.853
	c0.467-1.062,0.785-2.252,0.825-3.478c0.046-1.226-0.2-2.45-0.632-3.527c-0.447-1.071-1.053-1.99-1.701-2.819
	c-1.343-1.618-2.83-2.826-4.397-3.912c-0.798-0.558-1.491-0.949-2.239-1.432c-0.702-0.424-1.361-0.888-2.008-1.352
	c-1.286-0.938-2.44-1.975-3.412-3.087c-1.962-2.21-3.051-4.847-2.59-7.289c0.4-2.462,2.116-4.567,3.96-6.2
	c3.834-3.25,8.013-5.192,11.473-6.54c1.751-0.682,3.594-1.375,4.5-1.719c0,0,0.407-0.031,0.873-0.059
	c-0.998,0.403-2.107,0.849-3.215,1.309c-1.747,0.724-3.516,1.522-5.504,2.701c-1.97,1.191-4.09,2.645-5.833,4.901
	c-0.854,1.127-1.58,2.524-1.817,4.135c-0.262,1.608,0.071,3.334,0.792,4.807c1.454,2.983,3.958,5.195,6.621,7.155
	c1.368,0.966,2.726,1.839,3.98,2.798c1.27,0.977,2.512,2.033,3.63,3.198c2.225,2.307,4.04,5.16,3.864,8.153
	c-0.109,2.991-2.142,5.943-4.721,8.432c-2.616,2.539-5.724,4.652-9.12,6.784c-6.83,4.458-13.554,9.674-19.335,16.245
	c-2.865,3.292-5.5,6.931-7.461,11.073c-1.937,4.124-3.167,8.837-2.875,13.677c0.151,2.406,0.68,4.799,1.529,7.047
	c0.863,2.246,2.047,4.332,3.421,6.228c2.763,3.798,6.976,7.812,10.542,10.431c7.801,5.729,21.194,11.75,39.961,16.746
	c-4.533,0.946-9.228,1.451-14.038,1.451c-1.869,0-3.72-0.074-5.552-0.222C131.178,207.9,122.159,204.004,114.796,199.547
	 M120.927,122.417c-0.068-0.833-0.202-1.625-0.397-2.324c-1.582-5.654-6.272-9.224-10.798-7.674
	c-4.814,1.65-5.309,7.878-3.594,12.398c0.627,1.652,1.616,3.213,2.843,4.464c-0.742,0.506-1.475,1.034-2.204,1.568
	c-6.389-7.099-8.571-16.82-7.428-22.574c0.548-2.766,1.728-4.76,3.238-5.474c1.019-0.482,2.669-0.786,3.977-0.688
	c5.251,0.39,12.664,6.333,15.625,16.847c0.237,0.842,0.364,1.711,0.442,2.586C122.07,121.843,121.497,122.13,120.927,122.417
	 M103.712,133.198c-0.681,0.551-1.349,1.126-2.013,1.704c-1.239-0.79-2.433-1.837-3.513-3.291
	c-2.893-3.897-4.765-10.28-3.669-16.131c0.436-2.333,1.164-4.583,2.087-6.565C95.547,115.044,96.483,124.942,103.712,133.198
	 M149.079,85.412c0.294,0.552,0.642,1.064,1.013,1.56c0.112,0.148,0.231,0.291,0.35,0.436c0.288,0.353,0.59,0.695,0.908,1.024
	c0.129,0.131,0.253,0.265,0.385,0.392c0.04,0.04,0.076,0.082,0.117,0.121c-0.062,0.078-0.134,0.158-0.191,0.234
	c-0.406,0.532-0.782,1.071-1.143,1.617c-0.16,0.245-0.29,0.506-0.444,0.754c-0.127-0.091-0.262-0.18-0.388-0.272
	c-0.063-0.046-0.12-0.094-0.183-0.141c-0.464-0.346-0.919-0.696-1.349-1.054c-0.182-0.151-0.343-0.307-0.518-0.46
	c-0.301-0.264-0.609-0.526-0.888-0.798c-0.447-0.434-0.865-0.878-1.245-1.332c-1.579-1.87-2.31-3.957-1.724-5.809
	c0.531-1.872,1.938-3.408,3.258-4.632c2.459-2.228,4.801-3.645,6.505-4.663c0.188,0.026,0.378,0.044,0.566,0.072
	c-0.476,0.37-0.97,0.766-1.496,1.233c-1.17,1.06-2.524,2.361-3.559,4.332c-0.506,0.98-0.899,2.17-0.931,3.487
	C148.084,82.826,148.442,84.205,149.079,85.412 M160.681,94.104c-0.148,0.196-0.311,0.386-0.47,0.577
	c-0.334,0.404-0.68,0.797-1.027,1.14l-0.851,0.795l-0.042,0.039l-0.92,0.905c-0.984,1.009-1.878,2.107-2.709,3.267
	c-0.541-0.467-1.086-0.914-1.641-1.334l0.047-0.107l0.15-0.295c0.499-0.934,1.11-1.915,1.715-2.868
	c0.239-0.372,0.493-0.738,0.737-1.109c0.494-0.75,0.994-1.49,1.51-2.222c0.537-0.763,1.08-1.524,1.644-2.249
	c0.373-0.459,0.631-0.806,1.047-1.237l1.189-1.155l2.493-2.414c0.374-0.364,0.421-0.966,0.085-1.379
	c-0.355-0.438-0.998-0.505-1.436-0.15l-2.695,2.187c-0.47,0.393-0.854,0.664-1.393,1.16c-0.412,0.377-0.896,0.919-1.272,1.339
	c-0.691,0.794-1.343,1.602-1.983,2.415c-0.574,0.729-1.132,1.47-1.684,2.215c-0.229,0.312-0.469,0.616-0.696,0.931
	c-0.689,0.963-1.359,1.907-2.014,2.977l-0.063,0.112c-0.096-0.061-0.188-0.127-0.282-0.188c0.624-1.512,1.338-2.988,2.148-4.41
	c0.158-0.279,0.293-0.574,0.459-0.848c0.314-0.515,0.641-1.019,0.981-1.5c0.028-0.039,0.054-0.07,0.081-0.108
	c0.321-0.44,0.616-0.811,1.023-1.268l2.466-2.847c0.824-0.931,1.658-1.845,2.523-2.697c0.769-0.752,1.591-1.487,2.393-1.981
	l4.039,1.088c0.874,0.943,1.747,1.913,2.553,2.894c0.429,0.526,0.856,1.071,1.179,1.575c0.317,0.506,0.337,0.791,0.285,1.021
	c-0.054,0.189-0.285,0.467-0.753,0.705c-0.229,0.115-0.487,0.221-0.769,0.307l-0.214,0.063l-0.106,0.032l-0.196,0.071
	c-1.452-0.053-2.905-0.121-4.318-0.252c-0.526-0.049-1.022,0.293-1.151,0.821l-0.025,0.102v0.002
	c-0.12,0.598-0.424,1.299-0.782,1.955C161.574,92.845,161.146,93.491,160.681,94.104 M151.308,72.036
	c-1.528,0.855-3.569,1.983-5.536,3.573c-1.485,1.282-3.206,2.885-4.084,5.44c-0.42,1.261-0.507,2.771-0.111,4.167
	c0.376,1.402,1.103,2.674,1.967,3.82c1.43,1.827,3.191,3.428,5.126,4.923c-0.345,0.656-0.649,1.334-0.962,2.007
	c-0.027-0.016-0.054-0.033-0.081-0.049c-2.686-1.607-5.172-3.284-7.221-5.135c-2.019-1.834-3.634-3.949-3.775-6.029
	c-0.194-2.076,1.183-4.002,2.679-5.45c1.515-1.479,3.196-2.618,4.735-3.598c2.684-1.667,4.979-2.82,6.714-3.66
	C150.855,72.054,151.211,72.026,151.308,72.036 M159.483,106.735c-0.15-0.303-0.322-0.584-0.488-0.871
	c0.132-0.167,0.262-0.326,0.373-0.452c0.089-0.11,0.209-0.242,0.376-0.396l0.432-0.405l0.941-0.898c1.03-1.015,2-2.07,2.961-3.141
	c0.178-0.2,0.374-0.383,0.551-0.585c0.495-0.566,0.961-1.164,1.424-1.769c0.064-0.084,0.134-0.16,0.197-0.244
	c0.258-0.354,0.516-0.709,0.762-1.086c0.261-0.388,0.521-0.843,0.687-1.187l0.02-0.041c0.233-0.49,0.062-1.087-0.414-1.373
	c-0.505-0.304-1.16-0.141-1.466,0.364c-0.233,0.391-0.423,0.643-0.651,0.932c-0.24,0.304-0.501,0.605-0.765,0.905
	c-0.121,0.137-0.255,0.267-0.38,0.402c-0.425,0.457-0.858,0.91-1.295,1.366c-0.24,0.246-0.503,0.47-0.747,0.713
	c-0.918,0.914-1.844,1.825-2.808,2.679l-0.917,0.787l-0.507,0.426c-0.148,0.123-0.323,0.286-0.516,0.486
	c-0.009,0.008-0.014,0.015-0.022,0.024c-0.203-0.24-0.409-0.472-0.618-0.699c0.759-1.183,1.627-2.322,2.593-3.376l0.815-0.855
	l0.479-0.478l0.405-0.405c0.531-0.559,0.982-1.12,1.418-1.706c0.088-0.118,0.182-0.231,0.268-0.352
	c0.507-0.715,0.969-1.461,1.37-2.259c0.264-0.533,0.488-1.103,0.677-1.71c1.559,0.063,3.098,0.079,4.641,0.071
	c0.962,1.821,1.574,4.081,1.727,6.137c0.027,0.556,0.012,1.079-0.13,1.395c-0.128,0.298-0.459,0.748-0.832,1.166
	c-0.172,0.194-0.376,0.378-0.563,0.567c-0.627,0.634-1.308,1.25-2.021,1.832c-0.228,0.184-0.464,0.356-0.697,0.535
	c-0.242,0.187-0.482,0.381-0.729,0.559c-0.46,0.335-0.987,0.68-1.479,0.985c-1.019,0.634-2.121,1.266-3.198,1.984
	c-0.481,0.318-0.958,0.665-1.428,1.032C159.788,107.433,159.651,107.072,159.483,106.735 M170.485,109.897
	c-0.452-1.746-1.241-3.331-2.186-4.732c0.241-0.197,0.489-0.39,0.727-0.593c0.745-0.65,1.464-1.34,2.159-2.087
	c0.268,0.268,0.542,0.528,0.8,0.807c0.068,0.075,0.132,0.154,0.2,0.229c0.417,0.464,0.824,0.933,1.207,1.428
	c0.185,0.237,0.346,0.49,0.521,0.734c0.258,0.364,0.527,0.72,0.762,1.1c0.406,0.652,0.777,1.326,1.1,2.028
	c1.377,2.934,1.876,6.282,1.272,9.636c-0.583,3.359-2.206,6.674-4.438,9.697c-1.124,1.53-2.365,2.933-3.772,4.388
	c-1.447,1.498-2.904,3.035-4.337,4.656c-2.758,3.181-5.593,6.591-7.387,11.171c-0.167,0.077-0.354,0.161-0.506,0.228
	c-1.206,0.53-3.029,1.329-4.123,3.219c-1.085,1.877-0.872,3.845-0.73,5.147c0.026,0.248,0.064,0.599,0.088,0.731
	c-0.11,0.169-0.296,0.419-0.429,0.601c-0.787,1.07-1.976,2.686-1.976,4.899c0,2.216,1.188,3.832,1.976,4.901
	c0.126,0.172,0.299,0.406,0.411,0.574c-0.011,0.215-0.046,0.529-0.07,0.758c-0.021,0.199-0.044,0.419-0.063,0.646
	c-1.73-1.202-3.297-2.543-4.557-4.067c-1.175-1.446-2.062-3.03-2.531-4.717c-0.469-1.688-0.524-3.479-0.224-5.283
	c0.606-3.627,2.533-7.193,4.827-10.428c2.328-3.256,5.062-6.202,7.955-9.005c2.971-2.914,5.795-5.929,8.228-9.241
	c2.404-3.3,4.535-6.945,5.307-11.129C171.086,114.121,171.025,111.925,170.485,109.897 M212.686,140.444
	c0,11.134-2.679,21.649-7.398,30.96c-1.475-0.205-2.943-0.41-4.426-0.617c-2.759-0.414-5.509-0.891-8.249-1.403
	c-0.026-0.246-0.062-0.57-0.083-0.698c0.11-0.169,0.295-0.42,0.428-0.6c0.787-1.069,1.975-2.686,1.975-4.901
	c0-2.214-1.188-3.829-1.975-4.899c-0.126-0.17-0.299-0.403-0.411-0.573c0.011-0.214,0.045-0.53,0.07-0.759
	c0.142-1.303,0.354-3.271-0.732-5.148c-1.094-1.889-2.916-2.688-4.121-3.218c-0.224-0.099-0.54-0.236-0.654-0.274
	c-0.096-0.185-0.229-0.486-0.323-0.705c-0.529-1.205-1.329-3.027-3.221-4.122c-1.405-0.811-3.175-0.943-5.145-0.731
	c-0.268,0.029-0.537,0.065-0.727,0.093c-0.169-0.11-0.425-0.298-0.608-0.434c-1.069-0.787-2.686-1.975-4.901-1.975
	c-2.214,0-3.829,1.188-4.898,1.975c-0.064,0.048-0.141,0.1-0.217,0.155c0.494-0.642,0.997-1.28,1.505-1.906
	c1.294-1.574,2.647-3.111,4.014-4.631c1.411-1.558,2.838-3.259,4.05-5.03c2.449-3.543,4.32-7.565,4.932-11.837
	c0.646-4.26-0.157-8.637-1.98-12.196c-1.632-3.269-3.942-5.868-6.374-8.033c0.048-0.482,0.027-0.933,0-1.348
	c-0.123-1.37-0.432-2.633-0.828-3.883c-0.3-0.909-0.684-1.796-1.146-2.671c0.622-0.445,1.236-1.103,1.472-2.05
	c0.3-1.169-0.219-2.329-0.67-2.982c-0.459-0.672-0.926-1.225-1.402-1.782c-0.956-1.1-1.93-2.131-2.942-3.162l-0.046-0.047
	c-0.124-0.126-0.285-0.22-0.472-0.261l-0.013-0.003l-4.919-1.09l-0.018-0.004c-0.212-0.047-0.441-0.022-0.648,0.085l-0.015,0.008
	c-1.353,0.681-2.315,1.553-3.291,2.425c-0.959,0.879-1.854,1.794-2.73,2.718l-1.747,1.877c-0.975-0.84-1.801-1.723-2.354-2.66
	c-1.042-1.715-0.988-3.497-0.265-5.055c0.716-1.556,1.826-2.837,2.841-3.876c0.924-0.94,1.788-1.674,2.538-2.29
	C188.456,78.828,212.686,106.851,212.686,140.444 M137.819,71.992c-0.073,0.024,0.968-0.106,0.895-0.081
	c-3.613,1.265-9.178,3.032-13.61,6.438c-2.123,1.741-4.4,4.106-5.16,7.548c-0.37,1.688-0.266,3.549,0.292,5.247
	c0.553,1.704,1.478,3.254,2.581,4.641c1.106,1.387,2.39,2.635,3.787,3.754c0.702,0.554,1.419,1.103,2.17,1.606
	c0.678,0.482,1.476,0.988,2.09,1.469c2.556,1.87,5.092,4.515,4.814,7.051c-0.062,1.265-0.779,2.616-1.834,3.885
	c-1.077,1.261-2.421,2.448-3.911,3.534c-1.353,0.987-2.806,1.908-4.313,2.792c-0.11-0.584-0.222-1.168-0.384-1.743
	c-3.43-12.179-11.946-18.244-18.408-18.725c-1.935-0.144-3.723,0.164-5.312,0.915c-0.465,0.221-0.881,0.512-1.275,0.835
	l-0.015-0.031c-3.98,2.506-7.2,8.057-8.404,14.484c-1.279,6.832-0.131,13.943,3.356,18.64c1.08,1.455,2.243,2.572,3.454,3.466
	c-3.129,3.073-6.022,6.505-8.396,10.365c-2.412,3.902-4.321,8.248-5.299,12.904c-0.997,4.642-0.96,9.588,0.182,14.237
	c0.116,0.483,0.288,0.946,0.427,1.422C79,166.123,75.205,153.721,75.205,140.444C75.205,104.605,102.776,75.103,137.819,71.992
	 M173.234,190.275c-7.81-1.889-15.562-3.994-23.167-7.019c-3.77-1.522-7.479-3.236-10.91-5.304
	c-3.422-2.062-6.586-4.515-8.889-7.446c-2.299-2.931-3.536-6.345-3.328-9.909c0.172-3.572,1.689-7.182,3.706-10.51
	c2.035-3.344,4.623-6.424,7.38-9.293c2.792-2.894,5.695-5.465,8.795-8.063c3.097-2.652,6.054-5.428,8.631-8.565
	c1.28-1.575,2.465-3.247,3.428-5.091c0.968-1.83,1.666-3.905,1.84-6.084c0.06-0.738,0.017-1.478-0.067-2.212
	c0.638-0.661,1.379-1.272,2.194-1.831c0.801-0.564,1.667-1.103,2.54-1.667c1.512,2.435,2.162,5.275,1.511,8.196
	c-0.665,3.21-2.545,6.382-4.836,9.338c-2.303,2.972-5.059,5.776-7.99,8.502c-3.048,2.794-6.091,5.868-8.758,9.383
	c-2.633,3.517-5.086,7.54-5.993,12.411c-0.447,2.412-0.432,5.027,0.219,7.52c0.646,2.494,1.9,4.777,3.43,6.717
	c3.118,3.871,7.137,6.479,11.186,8.589c1.278,0.66,2.578,1.251,3.884,1.813c2.859,1.229,5.768,2.264,8.686,3.168
	c2.806,0.873,5.621,1.595,8.438,2.266c1.454,0.348,2.909,0.701,4.36,1.012c4.257,0.916,8.547,1.598,12.596,2.354
	c0.245,0.046,0.481,0.1,0.727,0.146c-1.748,1.771-3.596,3.442-5.526,5.016C184.089,193.035,177.824,191.455,173.234,190.275"/>
</svg>
